<svg width="179" height="34" viewBox="0 0 179 34" fill="none" xmlns="http://www.w3.org/2000/svg">
<path d="M14.8055 4.39171C9.626 0.02439 2.40594 1.90078 2.40594 1.90078C2.40594 1.90078 0.395102 7.89719 3.3199 12.6334C6.24469 17.3692 15.0188 25.8569 15.0188 25.8569M164.658 4.39171C169.838 0.02439 177.058 1.90078 177.058 1.90078C177.058 1.90078 179.069 7.89719 176.144 12.6334C173.219 17.3692 164.445 25.8569 164.445 25.8569M159.967 30.009C159.967 30.009 155.793 32.5 151.041 32.5C94.896 32.5 84.5679 32.5 28.4233 32.5C23.6709 32.5 19.4973 30.009 19.4973 30.009M159.998 8.35877L151.498 17.0001C151.498 17.0001 157.682 23.3971 163.135 28.5942C168.588 33.7609 174.255 32.3768 177.302 32.1308C177.728 28.2253 177.941 23.0892 174.925 19.5218M170.873 14.9704C170.873 14.9704 165.756 9.52724 162.678 6.39031C159.601 3.28449 156.585 1.77762 151.041 1.77762C94.7815 1.77762 84.6824 1.77762 28.4233 1.77762C22.8786 1.77762 19.8628 3.28449 16.7857 6.39031C13.7083 9.52724 8.5904 14.9704 8.5904 14.9704M19.4663 8.35877L27.9662 17.0001C27.9662 17.0001 21.782 23.3971 16.3286 28.5942C10.8755 33.7609 5.20848 32.3768 2.16205 32.1308C1.73587 28.2253 1.52261 23.0892 4.5384 19.5218" stroke="#FEFEFE" stroke-width="2.00013" stroke-miterlimit="22.9256"/>
<path d="M49.4062 9.86364V21.5H47.6562V11.3636H42.179V21.5H40.429V9.86364H49.4062ZM51.9545 24.7727V12.7727H53.6136V14.1875H53.7557C53.8542 14.0057 53.9962 13.7955 54.1818 13.5568C54.3674 13.3182 54.625 13.1098 54.9545 12.9318C55.2841 12.75 55.7197 12.6591 56.2614 12.6591C56.9659 12.6591 57.5947 12.8371 58.1477 13.1932C58.7008 13.5492 59.1345 14.0625 59.4489 14.733C59.767 15.4034 59.9261 16.2102 59.9261 17.1534C59.9261 18.0966 59.7689 18.9053 59.4545 19.5795C59.1402 20.25 58.7083 20.767 58.1591 21.1307C57.6098 21.4905 56.983 21.6705 56.2784 21.6705C55.7481 21.6705 55.3144 21.5814 54.9773 21.4034C54.6439 21.2254 54.3826 21.017 54.1932 20.7784C54.0038 20.5398 53.858 20.3277 53.7557 20.142H53.6534V24.7727H51.9545ZM53.6193 17.1364C53.6193 17.75 53.7083 18.2879 53.8864 18.75C54.0644 19.2121 54.322 19.5739 54.6591 19.8352C54.9962 20.0928 55.4091 20.2216 55.8977 20.2216C56.4053 20.2216 56.8295 20.0871 57.1705 19.8182C57.5114 19.5455 57.7689 19.1761 57.9432 18.7102C58.1212 18.2443 58.2102 17.7197 58.2102 17.1364C58.2102 16.5606 58.1231 16.0436 57.9489 15.5852C57.7784 15.1269 57.5208 14.7652 57.1761 14.5C56.8352 14.2348 56.4091 14.1023 55.8977 14.1023C55.4053 14.1023 54.9886 14.2292 54.6477 14.483C54.3106 14.7367 54.0549 15.0909 53.8807 15.5455C53.7064 16 53.6193 16.5303 53.6193 17.1364ZM65.5057 21.6761C64.6875 21.6761 63.9735 21.4886 63.3636 21.1136C62.7538 20.7386 62.2803 20.214 61.9432 19.5398C61.6061 18.8655 61.4375 18.0777 61.4375 17.1761C61.4375 16.2708 61.6061 15.4792 61.9432 14.8011C62.2803 14.1231 62.7538 13.5966 63.3636 13.2216C63.9735 12.8466 64.6875 12.6591 65.5057 12.6591C66.3239 12.6591 67.0379 12.8466 67.6477 13.2216C68.2576 13.5966 68.7311 14.1231 69.0682 14.8011C69.4053 15.4792 69.5739 16.2708 69.5739 17.1761C69.5739 18.0777 69.4053 18.8655 69.0682 19.5398C68.7311 20.214 68.2576 20.7386 67.6477 21.1136C67.0379 21.4886 66.3239 21.6761 65.5057 21.6761ZM65.5114 20.25C66.0417 20.25 66.4811 20.1098 66.8295 19.8295C67.178 19.5492 67.4356 19.1761 67.6023 18.7102C67.7727 18.2443 67.858 17.7311 67.858 17.1705C67.858 16.6136 67.7727 16.1023 67.6023 15.6364C67.4356 15.1667 67.178 14.7898 66.8295 14.5057C66.4811 14.2216 66.0417 14.0795 65.5114 14.0795C64.9773 14.0795 64.5341 14.2216 64.1818 14.5057C63.8333 14.7898 63.5739 15.1667 63.4034 15.6364C63.2367 16.1023 63.1534 16.6136 63.1534 17.1705C63.1534 17.7311 63.2367 18.2443 63.4034 18.7102C63.5739 19.1761 63.8333 19.5492 64.1818 19.8295C64.5341 20.1098 64.9773 20.25 65.5114 20.25ZM70.6179 24.017V20.0284H71.3281C71.5099 19.8617 71.6634 19.6629 71.7884 19.4318C71.9171 19.2008 72.0251 18.9261 72.1122 18.608C72.2031 18.2898 72.2789 17.9186 72.3395 17.4943C72.4001 17.0663 72.4531 16.5777 72.4986 16.0284L72.7713 12.7727H78.7031V20.0284H80.044V24.017H78.3849V21.5H72.2997V24.017H70.6179ZM73.1463 20.0284H77.044V14.2273H74.294L74.1122 16.0284C74.0251 16.9451 73.9152 17.7405 73.7827 18.4148C73.6501 19.0852 73.438 19.6231 73.1463 20.0284ZM85.3807 21.6761C84.5625 21.6761 83.8485 21.4886 83.2386 21.1136C82.6288 20.7386 82.1553 20.214 81.8182 19.5398C81.4811 18.8655 81.3125 18.0777 81.3125 17.1761C81.3125 16.2708 81.4811 15.4792 81.8182 14.8011C82.1553 14.1231 82.6288 13.5966 83.2386 13.2216C83.8485 12.8466 84.5625 12.6591 85.3807 12.6591C86.1989 12.6591 86.9129 12.8466 87.5227 13.2216C88.1326 13.5966 88.6061 14.1231 88.9432 14.8011C89.2803 15.4792 89.4489 16.2708 89.4489 17.1761C89.4489 18.0777 89.2803 18.8655 88.9432 19.5398C88.6061 20.214 88.1326 20.7386 87.5227 21.1136C86.9129 21.4886 86.1989 21.6761 85.3807 21.6761ZM85.3864 20.25C85.9167 20.25 86.3561 20.1098 86.7045 19.8295C87.053 19.5492 87.3106 19.1761 87.4773 18.7102C87.6477 18.2443 87.733 17.7311 87.733 17.1705C87.733 16.6136 87.6477 16.1023 87.4773 15.6364C87.3106 15.1667 87.053 14.7898 86.7045 14.5057C86.3561 14.2216 85.9167 14.0795 85.3864 14.0795C84.8523 14.0795 84.4091 14.2216 84.0568 14.5057C83.7083 14.7898 83.4489 15.1667 83.2784 15.6364C83.1117 16.1023 83.0284 16.6136 83.0284 17.1705C83.0284 17.7311 83.1117 18.2443 83.2784 18.7102C83.4489 19.1761 83.7083 19.5492 84.0568 19.8295C84.4091 20.1098 84.8523 20.25 85.3864 20.25ZM90.6577 21.5L90.652 20.0284H90.9645C91.2069 20.0284 91.4096 19.9773 91.5724 19.875C91.7391 19.7689 91.8755 19.5909 91.9815 19.3409C92.0876 19.0909 92.169 18.7462 92.2259 18.3068C92.2827 17.8636 92.3243 17.3068 92.3509 16.6364L92.5043 12.7727H98.5952V21.5H96.9304V14.2386H94.0781L93.9418 17.2045C93.9077 17.9242 93.8338 18.553 93.7202 19.0909C93.6103 19.6288 93.4493 20.0777 93.2372 20.4375C93.0251 20.7936 92.7524 21.0606 92.419 21.2386C92.0857 21.4129 91.6804 21.5 91.2031 21.5H90.6577ZM100.304 21.5L103.685 17.0341L100.344 12.7727H102.321L105.02 16.3977H105.628V12.7727H107.327V16.3977H107.918L110.616 12.7727H112.594L109.27 17.0341L112.634 21.5H110.616L107.895 17.8636H107.327V21.5H105.628V17.8636H105.06L102.321 21.5H100.304ZM116.026 19.1193L119.872 12.7727H121.702V21.5H120.037V15.1477L116.207 21.5H114.361V12.7727H116.026V19.1193ZM122.903 14.2386V12.7727H130.267V14.2386H127.42V21.5H125.761V14.2386H122.903ZM133.342 15.7727H135.876C136.945 15.7727 137.767 16.0379 138.342 16.5682C138.918 17.0985 139.206 17.7822 139.206 18.6193C139.206 19.1648 139.077 19.6553 138.82 20.0909C138.562 20.5265 138.185 20.8712 137.689 21.125C137.193 21.375 136.589 21.5 135.876 21.5H132.064V12.7727H133.729V20.0341H135.876C136.365 20.0341 136.767 19.9072 137.081 19.6534C137.395 19.3958 137.553 19.0682 137.553 18.6705C137.553 18.25 137.395 17.9072 137.081 17.642C136.767 17.3731 136.365 17.2386 135.876 17.2386H133.342V15.7727Z" fill="white"/>
</svg>
